<?xml version="1.0" encoding="utf-8"?>
<svg xmlns="http://www.w3.org/2000/svg" xmlns:xlink="http://www.w3.org/1999/xlink" width="600" height="400" viewBox="0 0 2400 1600">
<defs>
  <clipPath id="clip190">
    <rect x="0" y="0" width="2400" height="1600"/>
  </clipPath>
</defs>
<path clip-path="url(#clip190)" d="
M0 1600 L2400 1600 L2400 0 L0 0  Z
  " fill="#ffffff" fill-rule="evenodd" fill-opacity="1"/>
<defs>
  <clipPath id="clip191">
    <rect x="480" y="0" width="1681" height="1600"/>
  </clipPath>
</defs>
<path clip-path="url(#clip190)" d="
M149.191 1486.45 L2352.76 1486.45 L2352.76 123.472 L149.191 123.472  Z
  " fill="#ffffff" fill-rule="evenodd" fill-opacity="1"/>
<defs>
  <clipPath id="clip192">
    <rect x="149" y="123" width="2205" height="1364"/>
  </clipPath>
</defs>
<polyline clip-path="url(#clip192)" style="stroke:#000000; stroke-linecap:butt; stroke-linejoin:round; stroke-width:2; stroke-opacity:0.1; fill:none" points="
  370.617,1486.45 370.617,123.472 
  "/>
<polyline clip-path="url(#clip192)" style="stroke:#000000; stroke-linecap:butt; stroke-linejoin:round; stroke-width:2; stroke-opacity:0.1; fill:none" points="
  706.485,1486.45 706.485,123.472 
  "/>
<polyline clip-path="url(#clip192)" style="stroke:#000000; stroke-linecap:butt; stroke-linejoin:round; stroke-width:2; stroke-opacity:0.1; fill:none" points="
  1042.35,1486.45 1042.35,123.472 
  "/>
<polyline clip-path="url(#clip192)" style="stroke:#000000; stroke-linecap:butt; stroke-linejoin:round; stroke-width:2; stroke-opacity:0.1; fill:none" points="
  1378.22,1486.45 1378.22,123.472 
  "/>
<polyline clip-path="url(#clip192)" style="stroke:#000000; stroke-linecap:butt; stroke-linejoin:round; stroke-width:2; stroke-opacity:0.1; fill:none" points="
  1714.09,1486.45 1714.09,123.472 
  "/>
<polyline clip-path="url(#clip192)" style="stroke:#000000; stroke-linecap:butt; stroke-linejoin:round; stroke-width:2; stroke-opacity:0.1; fill:none" points="
  2049.96,1486.45 2049.96,123.472 
  "/>
<polyline clip-path="url(#clip190)" style="stroke:#000000; stroke-linecap:butt; stroke-linejoin:round; stroke-width:4; stroke-opacity:1; fill:none" points="
  149.191,1486.45 2352.76,1486.45 
  "/>
<polyline clip-path="url(#clip190)" style="stroke:#000000; stroke-linecap:butt; stroke-linejoin:round; stroke-width:4; stroke-opacity:1; fill:none" points="
  370.617,1486.45 370.617,1467.55 
  "/>
<polyline clip-path="url(#clip190)" style="stroke:#000000; stroke-linecap:butt; stroke-linejoin:round; stroke-width:4; stroke-opacity:1; fill:none" points="
  706.485,1486.45 706.485,1467.55 
  "/>
<polyline clip-path="url(#clip190)" style="stroke:#000000; stroke-linecap:butt; stroke-linejoin:round; stroke-width:4; stroke-opacity:1; fill:none" points="
  1042.35,1486.45 1042.35,1467.55 
  "/>
<polyline clip-path="url(#clip190)" style="stroke:#000000; stroke-linecap:butt; stroke-linejoin:round; stroke-width:4; stroke-opacity:1; fill:none" points="
  1378.22,1486.45 1378.22,1467.55 
  "/>
<polyline clip-path="url(#clip190)" style="stroke:#000000; stroke-linecap:butt; stroke-linejoin:round; stroke-width:4; stroke-opacity:1; fill:none" points="
  1714.09,1486.45 1714.09,1467.55 
  "/>
<polyline clip-path="url(#clip190)" style="stroke:#000000; stroke-linecap:butt; stroke-linejoin:round; stroke-width:4; stroke-opacity:1; fill:none" points="
  2049.96,1486.45 2049.96,1467.55 
  "/>
<path clip-path="url(#clip190)" d="M317.643 1532.02 L347.318 1532.02 L347.318 1535.95 L317.643 1535.95 L317.643 1532.02 Z" fill="#000000" fill-rule="evenodd" fill-opacity="1" /><path clip-path="url(#clip190)" d="M356.23 1514.29 L378.452 1514.29 L378.452 1516.28 L365.906 1548.85 L361.022 1548.85 L372.827 1518.22 L356.23 1518.22 L356.23 1514.29 Z" fill="#000000" fill-rule="evenodd" fill-opacity="1" /><path clip-path="url(#clip190)" d="M387.573 1542.97 L392.457 1542.97 L392.457 1548.85 L387.573 1548.85 L387.573 1542.97 Z" fill="#000000" fill-rule="evenodd" fill-opacity="1" /><path clip-path="url(#clip190)" d="M402.688 1514.29 L421.045 1514.29 L421.045 1518.22 L406.971 1518.22 L406.971 1526.7 Q407.989 1526.35 409.008 1526.19 Q410.026 1526 411.045 1526 Q416.832 1526 420.211 1529.17 Q423.591 1532.34 423.591 1537.76 Q423.591 1543.34 420.119 1546.44 Q416.647 1549.52 410.327 1549.52 Q408.151 1549.52 405.883 1549.15 Q403.638 1548.78 401.23 1548.04 L401.23 1543.34 Q403.313 1544.47 405.536 1545.03 Q407.758 1545.58 410.235 1545.58 Q414.239 1545.58 416.577 1543.48 Q418.915 1541.37 418.915 1537.76 Q418.915 1534.15 416.577 1532.04 Q414.239 1529.94 410.235 1529.94 Q408.36 1529.94 406.485 1530.35 Q404.633 1530.77 402.688 1531.65 L402.688 1514.29 Z" fill="#000000" fill-rule="evenodd" fill-opacity="1" /><path clip-path="url(#clip190)" d="M653.013 1532.02 L682.689 1532.02 L682.689 1535.95 L653.013 1535.95 L653.013 1532.02 Z" fill="#000000" fill-rule="evenodd" fill-opacity="1" /><path clip-path="url(#clip190)" d="M692.828 1514.29 L711.184 1514.29 L711.184 1518.22 L697.11 1518.22 L697.11 1526.7 Q698.128 1526.35 699.147 1526.19 Q700.165 1526 701.184 1526 Q706.971 1526 710.351 1529.17 Q713.73 1532.34 713.73 1537.76 Q713.73 1543.34 710.258 1546.44 Q706.786 1549.52 700.466 1549.52 Q698.29 1549.52 696.022 1549.15 Q693.777 1548.78 691.369 1548.04 L691.369 1543.34 Q693.453 1544.47 695.675 1545.03 Q697.897 1545.58 700.374 1545.58 Q704.378 1545.58 706.716 1543.48 Q709.054 1541.37 709.054 1537.76 Q709.054 1534.15 706.716 1532.04 Q704.378 1529.94 700.374 1529.94 Q698.499 1529.94 696.624 1530.35 Q694.772 1530.77 692.828 1531.65 L692.828 1514.29 Z" fill="#000000" fill-rule="evenodd" fill-opacity="1" /><path clip-path="url(#clip190)" d="M722.943 1542.97 L727.827 1542.97 L727.827 1548.85 L722.943 1548.85 L722.943 1542.97 Z" fill="#000000" fill-rule="evenodd" fill-opacity="1" /><path clip-path="url(#clip190)" d="M748.012 1517.37 Q744.401 1517.37 742.573 1520.93 Q740.767 1524.47 740.767 1531.6 Q740.767 1538.71 742.573 1542.27 Q744.401 1545.82 748.012 1545.82 Q751.647 1545.82 753.452 1542.27 Q755.281 1538.71 755.281 1531.6 Q755.281 1524.47 753.452 1520.93 Q751.647 1517.37 748.012 1517.37 M748.012 1513.66 Q753.823 1513.66 756.878 1518.27 Q759.957 1522.85 759.957 1531.6 Q759.957 1540.33 756.878 1544.94 Q753.823 1549.52 748.012 1549.52 Q742.202 1549.52 739.124 1544.94 Q736.068 1540.33 736.068 1531.6 Q736.068 1522.85 739.124 1518.27 Q742.202 1513.66 748.012 1513.66 Z" fill="#000000" fill-rule="evenodd" fill-opacity="1" /><path clip-path="url(#clip190)" d="M989.379 1532.02 L1019.05 1532.02 L1019.05 1535.95 L989.379 1535.95 L989.379 1532.02 Z" fill="#000000" fill-rule="evenodd" fill-opacity="1" /><path clip-path="url(#clip190)" d="M1033.17 1544.91 L1049.49 1544.91 L1049.49 1548.85 L1027.55 1548.85 L1027.55 1544.91 Q1030.21 1542.16 1034.8 1537.53 Q1039.4 1532.88 1040.58 1531.53 Q1042.83 1529.01 1043.71 1527.27 Q1044.61 1525.51 1044.61 1523.82 Q1044.61 1521.07 1042.67 1519.33 Q1040.74 1517.6 1037.64 1517.6 Q1035.44 1517.6 1032.99 1518.36 Q1030.56 1519.13 1027.78 1520.68 L1027.78 1515.95 Q1030.61 1514.82 1033.06 1514.24 Q1035.51 1513.66 1037.55 1513.66 Q1042.92 1513.66 1046.11 1516.35 Q1049.31 1519.03 1049.31 1523.52 Q1049.31 1525.65 1048.5 1527.57 Q1047.71 1529.47 1045.61 1532.07 Q1045.03 1532.74 1041.92 1535.95 Q1038.82 1539.15 1033.17 1544.91 Z" fill="#000000" fill-rule="evenodd" fill-opacity="1" /><path clip-path="url(#clip190)" d="M1059.31 1542.97 L1064.19 1542.97 L1064.19 1548.85 L1059.31 1548.85 L1059.31 1542.97 Z" fill="#000000" fill-rule="evenodd" fill-opacity="1" /><path clip-path="url(#clip190)" d="M1074.42 1514.29 L1092.78 1514.29 L1092.78 1518.22 L1078.71 1518.22 L1078.71 1526.7 Q1079.73 1526.35 1080.74 1526.19 Q1081.76 1526 1082.78 1526 Q1088.57 1526 1091.95 1529.17 Q1095.33 1532.34 1095.33 1537.76 Q1095.33 1543.34 1091.85 1546.44 Q1088.38 1549.52 1082.06 1549.52 Q1079.89 1549.52 1077.62 1549.15 Q1075.37 1548.78 1072.97 1548.04 L1072.97 1543.34 Q1075.05 1544.47 1077.27 1545.03 Q1079.49 1545.58 1081.97 1545.58 Q1085.98 1545.58 1088.31 1543.48 Q1090.65 1541.37 1090.65 1537.76 Q1090.65 1534.15 1088.31 1532.04 Q1085.98 1529.94 1081.97 1529.94 Q1080.1 1529.94 1078.22 1530.35 Q1076.37 1530.77 1074.42 1531.65 L1074.42 1514.29 Z" fill="#000000" fill-rule="evenodd" fill-opacity="1" /><path clip-path="url(#clip190)" d="M1355.61 1517.37 Q1351.99 1517.37 1350.17 1520.93 Q1348.36 1524.47 1348.36 1531.6 Q1348.36 1538.71 1350.17 1542.27 Q1351.99 1545.82 1355.61 1545.82 Q1359.24 1545.82 1361.05 1542.27 Q1362.87 1538.71 1362.87 1531.6 Q1362.87 1524.47 1361.05 1520.93 Q1359.24 1517.37 1355.61 1517.37 M1355.61 1513.66 Q1361.42 1513.66 1364.47 1518.27 Q1367.55 1522.85 1367.55 1531.6 Q1367.55 1540.33 1364.47 1544.94 Q1361.42 1549.52 1355.61 1549.52 Q1349.8 1549.52 1346.72 1544.94 Q1343.66 1540.33 1343.66 1531.6 Q1343.66 1522.85 1346.72 1518.27 Q1349.8 1513.66 1355.61 1513.66 Z" fill="#000000" fill-rule="evenodd" fill-opacity="1" /><path clip-path="url(#clip190)" d="M1375.77 1542.97 L1380.65 1542.97 L1380.65 1548.85 L1375.77 1548.85 L1375.77 1542.97 Z" fill="#000000" fill-rule="evenodd" fill-opacity="1" /><path clip-path="url(#clip190)" d="M1400.84 1517.37 Q1397.23 1517.37 1395.4 1520.93 Q1393.59 1524.47 1393.59 1531.6 Q1393.59 1538.71 1395.4 1542.27 Q1397.23 1545.82 1400.84 1545.82 Q1404.47 1545.82 1406.28 1542.27 Q1408.1 1538.71 1408.1 1531.6 Q1408.1 1524.47 1406.28 1520.93 Q1404.47 1517.37 1400.84 1517.37 M1400.84 1513.66 Q1406.65 1513.66 1409.7 1518.27 Q1412.78 1522.85 1412.78 1531.6 Q1412.78 1540.33 1409.7 1544.94 Q1406.65 1549.52 1400.84 1549.52 Q1395.03 1549.52 1391.95 1544.94 Q1388.89 1540.33 1388.89 1531.6 Q1388.89 1522.85 1391.95 1518.27 Q1395.03 1513.66 1400.84 1513.66 Z" fill="#000000" fill-rule="evenodd" fill-opacity="1" /><path clip-path="url(#clip190)" d="M1685.83 1544.91 L1702.14 1544.91 L1702.14 1548.85 L1680.2 1548.85 L1680.2 1544.91 Q1682.86 1542.16 1687.45 1537.53 Q1692.05 1532.88 1693.23 1531.53 Q1695.48 1529.01 1696.36 1527.27 Q1697.26 1525.51 1697.26 1523.82 Q1697.26 1521.07 1695.32 1519.33 Q1693.39 1517.6 1690.29 1517.6 Q1688.09 1517.6 1685.64 1518.36 Q1683.21 1519.13 1680.43 1520.68 L1680.43 1515.95 Q1683.26 1514.82 1685.71 1514.24 Q1688.16 1513.66 1690.2 1513.66 Q1695.57 1513.66 1698.76 1516.35 Q1701.96 1519.03 1701.96 1523.52 Q1701.96 1525.65 1701.15 1527.57 Q1700.36 1529.47 1698.26 1532.07 Q1697.68 1532.74 1694.58 1535.95 Q1691.47 1539.15 1685.83 1544.91 Z" fill="#000000" fill-rule="evenodd" fill-opacity="1" /><path clip-path="url(#clip190)" d="M1711.96 1542.97 L1716.84 1542.97 L1716.84 1548.85 L1711.96 1548.85 L1711.96 1542.97 Z" fill="#000000" fill-rule="evenodd" fill-opacity="1" /><path clip-path="url(#clip190)" d="M1727.07 1514.29 L1745.43 1514.29 L1745.43 1518.22 L1731.36 1518.22 L1731.36 1526.7 Q1732.38 1526.35 1733.39 1526.19 Q1734.41 1526 1735.43 1526 Q1741.22 1526 1744.6 1529.17 Q1747.98 1532.34 1747.98 1537.76 Q1747.98 1543.34 1744.51 1546.44 Q1741.03 1549.52 1734.71 1549.52 Q1732.54 1549.52 1730.27 1549.15 Q1728.02 1548.78 1725.62 1548.04 L1725.62 1543.34 Q1727.7 1544.47 1729.92 1545.03 Q1732.14 1545.58 1734.62 1545.58 Q1738.63 1545.58 1740.96 1543.48 Q1743.3 1541.37 1743.3 1537.76 Q1743.3 1534.15 1740.96 1532.04 Q1738.63 1529.94 1734.62 1529.94 Q1732.75 1529.94 1730.87 1530.35 Q1729.02 1530.77 1727.07 1531.65 L1727.07 1514.29 Z" fill="#000000" fill-rule="evenodd" fill-opacity="1" /><path clip-path="url(#clip190)" d="M2017.12 1514.29 L2035.48 1514.29 L2035.48 1518.22 L2021.4 1518.22 L2021.4 1526.7 Q2022.42 1526.35 2023.44 1526.19 Q2024.46 1526 2025.48 1526 Q2031.26 1526 2034.64 1529.17 Q2038.02 1532.34 2038.02 1537.76 Q2038.02 1543.34 2034.55 1546.44 Q2031.08 1549.52 2024.76 1549.52 Q2022.58 1549.52 2020.32 1549.15 Q2018.07 1548.78 2015.66 1548.04 L2015.66 1543.34 Q2017.75 1544.47 2019.97 1545.03 Q2022.19 1545.58 2024.67 1545.58 Q2028.67 1545.58 2031.01 1543.48 Q2033.35 1541.37 2033.35 1537.76 Q2033.35 1534.15 2031.01 1532.04 Q2028.67 1529.94 2024.67 1529.94 Q2022.79 1529.94 2020.92 1530.35 Q2019.07 1530.77 2017.12 1531.65 L2017.12 1514.29 Z" fill="#000000" fill-rule="evenodd" fill-opacity="1" /><path clip-path="url(#clip190)" d="M2047.24 1542.97 L2052.12 1542.97 L2052.12 1548.85 L2047.24 1548.85 L2047.24 1542.97 Z" fill="#000000" fill-rule="evenodd" fill-opacity="1" /><path clip-path="url(#clip190)" d="M2072.31 1517.37 Q2068.7 1517.37 2066.87 1520.93 Q2065.06 1524.47 2065.06 1531.6 Q2065.06 1538.71 2066.87 1542.27 Q2068.7 1545.82 2072.31 1545.82 Q2075.94 1545.82 2077.75 1542.27 Q2079.57 1538.71 2079.57 1531.6 Q2079.57 1524.47 2077.75 1520.93 Q2075.94 1517.37 2072.31 1517.37 M2072.31 1513.66 Q2078.12 1513.66 2081.17 1518.27 Q2084.25 1522.85 2084.25 1531.6 Q2084.25 1540.33 2081.17 1544.94 Q2078.12 1549.52 2072.31 1549.52 Q2066.5 1549.52 2063.42 1544.94 Q2060.36 1540.33 2060.36 1531.6 Q2060.36 1522.85 2063.42 1518.27 Q2066.5 1513.66 2072.31 1513.66 Z" fill="#000000" fill-rule="evenodd" fill-opacity="1" /><polyline clip-path="url(#clip192)" style="stroke:#000000; stroke-linecap:butt; stroke-linejoin:round; stroke-width:2; stroke-opacity:0.1; fill:none" points="
  149.191,1368.31 2352.76,1368.31 
  "/>
<polyline clip-path="url(#clip192)" style="stroke:#000000; stroke-linecap:butt; stroke-linejoin:round; stroke-width:2; stroke-opacity:0.1; fill:none" points="
  149.191,1118.86 2352.76,1118.86 
  "/>
<polyline clip-path="url(#clip192)" style="stroke:#000000; stroke-linecap:butt; stroke-linejoin:round; stroke-width:2; stroke-opacity:0.1; fill:none" points="
  149.191,869.407 2352.76,869.407 
  "/>
<polyline clip-path="url(#clip192)" style="stroke:#000000; stroke-linecap:butt; stroke-linejoin:round; stroke-width:2; stroke-opacity:0.1; fill:none" points="
  149.191,619.952 2352.76,619.952 
  "/>
<polyline clip-path="url(#clip192)" style="stroke:#000000; stroke-linecap:butt; stroke-linejoin:round; stroke-width:2; stroke-opacity:0.1; fill:none" points="
  149.191,370.498 2352.76,370.498 
  "/>
<polyline clip-path="url(#clip190)" style="stroke:#000000; stroke-linecap:butt; stroke-linejoin:round; stroke-width:4; stroke-opacity:1; fill:none" points="
  149.191,1486.45 149.191,123.472 
  "/>
<polyline clip-path="url(#clip190)" style="stroke:#000000; stroke-linecap:butt; stroke-linejoin:round; stroke-width:4; stroke-opacity:1; fill:none" points="
  149.191,1368.31 168.089,1368.31 
  "/>
<polyline clip-path="url(#clip190)" style="stroke:#000000; stroke-linecap:butt; stroke-linejoin:round; stroke-width:4; stroke-opacity:1; fill:none" points="
  149.191,1118.86 168.089,1118.86 
  "/>
<polyline clip-path="url(#clip190)" style="stroke:#000000; stroke-linecap:butt; stroke-linejoin:round; stroke-width:4; stroke-opacity:1; fill:none" points="
  149.191,869.407 168.089,869.407 
  "/>
<polyline clip-path="url(#clip190)" style="stroke:#000000; stroke-linecap:butt; stroke-linejoin:round; stroke-width:4; stroke-opacity:1; fill:none" points="
  149.191,619.952 168.089,619.952 
  "/>
<polyline clip-path="url(#clip190)" style="stroke:#000000; stroke-linecap:butt; stroke-linejoin:round; stroke-width:4; stroke-opacity:1; fill:none" points="
  149.191,370.498 168.089,370.498 
  "/>
<path clip-path="url(#clip190)" d="M50.9921 1368.77 L80.6679 1368.77 L80.6679 1372.7 L50.9921 1372.7 L50.9921 1368.77 Z" fill="#000000" fill-rule="evenodd" fill-opacity="1" /><path clip-path="url(#clip190)" d="M103.608 1355.11 L91.8021 1373.56 L103.608 1373.56 L103.608 1355.11 M102.381 1351.03 L108.26 1351.03 L108.26 1373.56 L113.191 1373.56 L113.191 1377.45 L108.26 1377.45 L108.26 1385.59 L103.608 1385.59 L103.608 1377.45 L88.0058 1377.45 L88.0058 1372.93 L102.381 1351.03 Z" fill="#000000" fill-rule="evenodd" fill-opacity="1" /><path clip-path="url(#clip190)" d="M53.0754 1119.31 L82.7512 1119.31 L82.7512 1123.25 L53.0754 1123.25 L53.0754 1119.31 Z" fill="#000000" fill-rule="evenodd" fill-opacity="1" /><path clip-path="url(#clip190)" d="M96.8715 1132.21 L113.191 1132.21 L113.191 1136.14 L91.2465 1136.14 L91.2465 1132.21 Q93.9086 1129.45 98.4919 1124.82 Q103.098 1120.17 104.279 1118.83 Q106.524 1116.3 107.404 1114.57 Q108.307 1112.81 108.307 1111.12 Q108.307 1108.36 106.362 1106.63 Q104.441 1104.89 101.339 1104.89 Q99.14 1104.89 96.6863 1105.65 Q94.2558 1106.42 91.478 1107.97 L91.478 1103.25 Q94.3021 1102.11 96.7558 1101.53 Q99.2095 1100.96 101.246 1100.96 Q106.617 1100.96 109.811 1103.64 Q113.006 1106.33 113.006 1110.82 Q113.006 1112.95 112.196 1114.87 Q111.408 1116.77 109.302 1119.36 Q108.723 1120.03 105.621 1123.25 Q102.52 1126.44 96.8715 1132.21 Z" fill="#000000" fill-rule="evenodd" fill-opacity="1" /><path clip-path="url(#clip190)" d="M101.246 855.205 Q97.6354 855.205 95.8067 858.77 Q94.0012 862.312 94.0012 869.441 Q94.0012 876.548 95.8067 880.112 Q97.6354 883.654 101.246 883.654 Q104.881 883.654 106.686 880.112 Q108.515 876.548 108.515 869.441 Q108.515 862.312 106.686 858.77 Q104.881 855.205 101.246 855.205 M101.246 851.502 Q107.057 851.502 110.112 856.108 Q113.191 860.691 113.191 869.441 Q113.191 878.168 110.112 882.774 Q107.057 887.358 101.246 887.358 Q95.4363 887.358 92.3576 882.774 Q89.3021 878.168 89.3021 869.441 Q89.3021 860.691 92.3576 856.108 Q95.4363 851.502 101.246 851.502 Z" fill="#000000" fill-rule="evenodd" fill-opacity="1" /><path clip-path="url(#clip190)" d="M96.8715 633.297 L113.191 633.297 L113.191 637.232 L91.2465 637.232 L91.2465 633.297 Q93.9086 630.543 98.4919 625.913 Q103.098 621.26 104.279 619.918 Q106.524 617.395 107.404 615.658 Q108.307 613.899 108.307 612.209 Q108.307 609.455 106.362 607.719 Q104.441 605.983 101.339 605.983 Q99.14 605.983 96.6863 606.746 Q94.2558 607.51 91.478 609.061 L91.478 604.339 Q94.3021 603.205 96.7558 602.626 Q99.2095 602.047 101.246 602.047 Q106.617 602.047 109.811 604.733 Q113.006 607.418 113.006 611.908 Q113.006 614.038 112.196 615.959 Q111.408 617.857 109.302 620.45 Q108.723 621.121 105.621 624.339 Q102.52 627.533 96.8715 633.297 Z" fill="#000000" fill-rule="evenodd" fill-opacity="1" /><path clip-path="url(#clip190)" d="M103.608 357.292 L91.8021 375.741 L103.608 375.741 L103.608 357.292 M102.381 353.218 L108.26 353.218 L108.26 375.741 L113.191 375.741 L113.191 379.63 L108.26 379.63 L108.26 387.778 L103.608 387.778 L103.608 379.63 L88.0058 379.63 L88.0058 375.116 L102.381 353.218 Z" fill="#000000" fill-rule="evenodd" fill-opacity="1" /><path clip-path="url(#clip190)" d="M935.145 12.096 L943.368 12.096 L943.368 48.8377 Q943.368 58.5599 946.892 62.8538 Q950.417 67.1073 958.316 67.1073 Q966.175 67.1073 969.699 62.8538 Q973.223 58.5599 973.223 48.8377 L973.223 12.096 L981.446 12.096 L981.446 49.8504 Q981.446 61.6791 975.573 67.7149 Q969.739 73.7508 958.316 73.7508 Q946.852 73.7508 940.978 67.7149 Q935.145 61.6791 935.145 49.8504 L935.145 12.096 Z" fill="#000000" fill-rule="evenodd" fill-opacity="1" /><path clip-path="url(#clip190)" d="M1017.01 20.1573 L1005.91 50.2555 L1028.15 50.2555 L1017.01 20.1573 M1012.4 12.096 L1021.67 12.096 L1044.72 72.576 L1036.21 72.576 L1030.71 57.061 L1003.44 57.061 L997.934 72.576 L989.305 72.576 L1012.4 12.096 Z" fill="#000000" fill-rule="evenodd" fill-opacity="1" /><path clip-path="url(#clip190)" d="M1053.55 12.096 L1065.75 12.096 L1081.18 53.2532 L1096.69 12.096 L1108.89 12.096 L1108.89 72.576 L1100.91 72.576 L1100.91 19.4686 L1085.31 60.9499 L1077.09 60.9499 L1061.49 19.4686 L1061.49 72.576 L1053.55 72.576 L1053.55 12.096 Z" fill="#000000" fill-rule="evenodd" fill-opacity="1" /><path clip-path="url(#clip190)" d="M1133.31 18.8205 L1133.31 41.5461 L1143.6 41.5461 Q1149.32 41.5461 1152.44 38.5889 Q1155.55 35.6318 1155.55 30.163 Q1155.55 24.7348 1152.44 21.7777 Q1149.32 18.8205 1143.6 18.8205 L1133.31 18.8205 M1125.13 12.096 L1143.6 12.096 Q1153.77 12.096 1158.96 16.714 Q1164.18 21.2916 1164.18 30.163 Q1164.18 39.1155 1158.96 43.6931 Q1153.77 48.2706 1143.6 48.2706 L1133.31 48.2706 L1133.31 72.576 L1125.13 72.576 L1125.13 12.096 Z" fill="#000000" fill-rule="evenodd" fill-opacity="1" /><path clip-path="url(#clip190)" d="M1240.02 48.0275 L1240.02 51.6733 L1205.75 51.6733 Q1206.23 59.3701 1210.36 63.421 Q1214.54 67.4314 1221.95 67.4314 Q1226.24 67.4314 1230.25 66.3781 Q1234.3 65.3249 1238.27 63.2184 L1238.27 70.267 Q1234.26 71.9684 1230.05 72.8596 Q1225.84 73.7508 1221.5 73.7508 Q1210.65 73.7508 1204.29 67.4314 Q1197.97 61.1119 1197.97 50.3365 Q1197.97 39.1965 1203.96 32.6746 Q1210 26.1121 1220.21 26.1121 Q1229.36 26.1121 1234.67 32.0264 Q1240.02 37.9003 1240.02 48.0275 M1232.56 45.84 Q1232.48 39.7232 1229.12 36.0774 Q1225.8 32.4315 1220.29 32.4315 Q1214.05 32.4315 1210.28 35.9558 Q1206.56 39.4801 1205.99 45.8805 L1232.56 45.84 Z" fill="#000000" fill-rule="evenodd" fill-opacity="1" /><path clip-path="url(#clip190)" d="M1289.96 45.1919 L1289.96 72.576 L1282.51 72.576 L1282.51 45.4349 Q1282.51 38.994 1280 35.7938 Q1277.49 32.5936 1272.46 32.5936 Q1266.43 32.5936 1262.94 36.4419 Q1259.46 40.2903 1259.46 46.9338 L1259.46 72.576 L1251.97 72.576 L1251.97 27.2059 L1259.46 27.2059 L1259.46 34.2544 Q1262.13 30.163 1265.74 28.1376 Q1269.38 26.1121 1274.12 26.1121 Q1281.94 26.1121 1285.95 30.9732 Q1289.96 35.7938 1289.96 45.1919 Z" fill="#000000" fill-rule="evenodd" fill-opacity="1" /><path clip-path="url(#clip190)" d="M1337.48 28.9478 L1337.48 35.9153 Q1334.32 34.1734 1331.12 33.3227 Q1327.96 32.4315 1324.72 32.4315 Q1317.47 32.4315 1313.46 37.0496 Q1309.45 41.6271 1309.45 49.9314 Q1309.45 58.2358 1313.46 62.8538 Q1317.47 67.4314 1324.72 67.4314 Q1327.96 67.4314 1331.12 66.5807 Q1334.32 65.6895 1337.48 63.9476 L1337.48 70.8341 Q1334.36 72.2924 1331 73.0216 Q1327.68 73.7508 1323.91 73.7508 Q1313.66 73.7508 1307.63 67.3098 Q1301.59 60.8689 1301.59 49.9314 Q1301.59 38.832 1307.67 32.472 Q1313.78 26.1121 1324.4 26.1121 Q1327.84 26.1121 1331.12 26.8413 Q1334.4 27.5299 1337.48 28.9478 Z" fill="#000000" fill-rule="evenodd" fill-opacity="1" /><path clip-path="url(#clip190)" d="M1368.02 32.4315 Q1362.03 32.4315 1358.55 37.1306 Q1355.06 41.7891 1355.06 49.9314 Q1355.06 58.0738 1358.5 62.7728 Q1361.99 67.4314 1368.02 67.4314 Q1373.98 67.4314 1377.46 62.7323 Q1380.95 58.0333 1380.95 49.9314 Q1380.95 41.8701 1377.46 37.1711 Q1373.98 32.4315 1368.02 32.4315 M1368.02 26.1121 Q1377.75 26.1121 1383.3 32.4315 Q1388.85 38.7509 1388.85 49.9314 Q1388.85 61.0714 1383.3 67.4314 Q1377.75 73.7508 1368.02 73.7508 Q1358.26 73.7508 1352.71 67.4314 Q1347.2 61.0714 1347.2 49.9314 Q1347.2 38.7509 1352.71 32.4315 Q1358.26 26.1121 1368.02 26.1121 Z" fill="#000000" fill-rule="evenodd" fill-opacity="1" /><path clip-path="url(#clip190)" d="M1431.06 34.0924 L1431.06 9.54393 L1438.51 9.54393 L1438.51 72.576 L1431.06 72.576 L1431.06 65.7705 Q1428.71 69.8214 1425.1 71.8063 Q1421.54 73.7508 1416.51 73.7508 Q1408.29 73.7508 1403.11 67.1883 Q1397.96 60.6258 1397.96 49.9314 Q1397.96 39.2371 1403.11 32.6746 Q1408.29 26.1121 1416.51 26.1121 Q1421.54 26.1121 1425.1 28.0971 Q1428.71 30.0415 1431.06 34.0924 M1405.66 49.9314 Q1405.66 58.1548 1409.02 62.8538 Q1412.42 67.5124 1418.34 67.5124 Q1424.25 67.5124 1427.65 62.8538 Q1431.06 58.1548 1431.06 49.9314 Q1431.06 41.7081 1427.65 37.0496 Q1424.25 32.3505 1418.34 32.3505 Q1412.42 32.3505 1409.02 37.0496 Q1405.66 41.7081 1405.66 49.9314 Z" fill="#000000" fill-rule="evenodd" fill-opacity="1" /><path clip-path="url(#clip190)" d="M1453.86 27.2059 L1461.32 27.2059 L1461.32 72.576 L1453.86 72.576 L1453.86 27.2059 M1453.86 9.54393 L1461.32 9.54393 L1461.32 18.9825 L1453.86 18.9825 L1453.86 9.54393 Z" fill="#000000" fill-rule="evenodd" fill-opacity="1" /><path clip-path="url(#clip190)" d="M1514.63 45.1919 L1514.63 72.576 L1507.17 72.576 L1507.17 45.4349 Q1507.17 38.994 1504.66 35.7938 Q1502.15 32.5936 1497.13 32.5936 Q1491.09 32.5936 1487.61 36.4419 Q1484.12 40.2903 1484.12 46.9338 L1484.12 72.576 L1476.63 72.576 L1476.63 27.2059 L1484.12 27.2059 L1484.12 34.2544 Q1486.8 30.163 1490.4 28.1376 Q1494.05 26.1121 1498.79 26.1121 Q1506.61 26.1121 1510.62 30.9732 Q1514.63 35.7938 1514.63 45.1919 Z" fill="#000000" fill-rule="evenodd" fill-opacity="1" /><path clip-path="url(#clip190)" d="M1559.35 49.3643 Q1559.35 41.2625 1555.99 36.8065 Q1552.66 32.3505 1546.63 32.3505 Q1540.63 32.3505 1537.27 36.8065 Q1533.95 41.2625 1533.95 49.3643 Q1533.95 57.4256 1537.27 61.8816 Q1540.63 66.3376 1546.63 66.3376 Q1552.66 66.3376 1555.99 61.8816 Q1559.35 57.4256 1559.35 49.3643 M1566.8 66.9452 Q1566.8 78.5308 1561.66 84.1616 Q1556.51 89.8329 1545.9 89.8329 Q1541.97 89.8329 1538.49 89.2252 Q1535 88.6581 1531.72 87.4428 L1531.72 80.1917 Q1535 81.9741 1538.2 82.8248 Q1541.4 83.6755 1544.72 83.6755 Q1552.06 83.6755 1555.7 79.8271 Q1559.35 76.0193 1559.35 68.282 L1559.35 64.5957 Q1557.04 68.6061 1553.43 70.5911 Q1549.83 72.576 1544.81 72.576 Q1536.46 72.576 1531.36 66.2161 Q1526.25 59.8562 1526.25 49.3643 Q1526.25 38.832 1531.36 32.472 Q1536.46 26.1121 1544.81 26.1121 Q1549.83 26.1121 1553.43 28.0971 Q1557.04 30.082 1559.35 34.0924 L1559.35 27.2059 L1566.8 27.2059 L1566.8 66.9452 Z" fill="#000000" fill-rule="evenodd" fill-opacity="1" /><circle clip-path="url(#clip192)" cx="1199.34" cy="1107.38" r="7" fill="#009af9" fill-rule="evenodd" fill-opacity="1" stroke="#000000" stroke-opacity="1" stroke-width="3.2"/>
<circle clip-path="url(#clip192)" cx="1107.21" cy="991.772" r="7" fill="#009af9" fill-rule="evenodd" fill-opacity="1" stroke="#000000" stroke-opacity="1" stroke-width="3.2"/>
<circle clip-path="url(#clip192)" cx="264.654" cy="183.37" r="7" fill="#009af9" fill-rule="evenodd" fill-opacity="1" stroke="#000000" stroke-opacity="1" stroke-width="3.2"/>
<circle clip-path="url(#clip192)" cx="2193.46" cy="937.9" r="7" fill="#009af9" fill-rule="evenodd" fill-opacity="1" stroke="#000000" stroke-opacity="1" stroke-width="3.2"/>
<circle clip-path="url(#clip192)" cx="1191.78" cy="1101.8" r="7" fill="#009af9" fill-rule="evenodd" fill-opacity="1" stroke="#000000" stroke-opacity="1" stroke-width="3.2"/>
<circle clip-path="url(#clip192)" cx="211.556" cy="201.941" r="7" fill="#009af9" fill-rule="evenodd" fill-opacity="1" stroke="#000000" stroke-opacity="1" stroke-width="3.2"/>
<circle clip-path="url(#clip192)" cx="448.546" cy="269.093" r="7" fill="#009af9" fill-rule="evenodd" fill-opacity="1" stroke="#000000" stroke-opacity="1" stroke-width="3.2"/>
<circle clip-path="url(#clip192)" cx="246.858" cy="310.004" r="7" fill="#009af9" fill-rule="evenodd" fill-opacity="1" stroke="#000000" stroke-opacity="1" stroke-width="3.2"/>
<circle clip-path="url(#clip192)" cx="1278.72" cy="1261.41" r="7" fill="#009af9" fill-rule="evenodd" fill-opacity="1" stroke="#000000" stroke-opacity="1" stroke-width="3.2"/>
<circle clip-path="url(#clip192)" cx="2157.41" cy="776.506" r="7" fill="#009af9" fill-rule="evenodd" fill-opacity="1" stroke="#000000" stroke-opacity="1" stroke-width="3.2"/>
<circle clip-path="url(#clip192)" cx="2193.81" cy="940.356" r="7" fill="#009af9" fill-rule="evenodd" fill-opacity="1" stroke="#000000" stroke-opacity="1" stroke-width="3.2"/>
<circle clip-path="url(#clip192)" cx="1280.9" cy="1394.01" r="7" fill="#009af9" fill-rule="evenodd" fill-opacity="1" stroke="#000000" stroke-opacity="1" stroke-width="3.2"/>
<circle clip-path="url(#clip192)" cx="1539.29" cy="774.566" r="7" fill="#009af9" fill-rule="evenodd" fill-opacity="1" stroke="#000000" stroke-opacity="1" stroke-width="3.2"/>
<circle clip-path="url(#clip192)" cx="408.063" cy="280.09" r="7" fill="#009af9" fill-rule="evenodd" fill-opacity="1" stroke="#000000" stroke-opacity="1" stroke-width="3.2"/>
<circle clip-path="url(#clip192)" cx="402.6" cy="199.74" r="7" fill="#009af9" fill-rule="evenodd" fill-opacity="1" stroke="#000000" stroke-opacity="1" stroke-width="3.2"/>
<circle clip-path="url(#clip192)" cx="1208.61" cy="1109.77" r="7" fill="#009af9" fill-rule="evenodd" fill-opacity="1" stroke="#000000" stroke-opacity="1" stroke-width="3.2"/>
<circle clip-path="url(#clip192)" cx="1256.62" cy="1438.87" r="7" fill="#009af9" fill-rule="evenodd" fill-opacity="1" stroke="#000000" stroke-opacity="1" stroke-width="3.2"/>
<circle clip-path="url(#clip192)" cx="1238.09" cy="1209.44" r="7" fill="#009af9" fill-rule="evenodd" fill-opacity="1" stroke="#000000" stroke-opacity="1" stroke-width="3.2"/>
<circle clip-path="url(#clip192)" cx="1899.48" cy="1015.03" r="7" fill="#009af9" fill-rule="evenodd" fill-opacity="1" stroke="#000000" stroke-opacity="1" stroke-width="3.2"/>
<circle clip-path="url(#clip192)" cx="1214.28" cy="1145.77" r="7" fill="#009af9" fill-rule="evenodd" fill-opacity="1" stroke="#000000" stroke-opacity="1" stroke-width="3.2"/>
<circle clip-path="url(#clip192)" cx="314.838" cy="318.475" r="7" fill="#009af9" fill-rule="evenodd" fill-opacity="1" stroke="#000000" stroke-opacity="1" stroke-width="3.2"/>
<circle clip-path="url(#clip192)" cx="1251.66" cy="1443.34" r="7" fill="#009af9" fill-rule="evenodd" fill-opacity="1" stroke="#000000" stroke-opacity="1" stroke-width="3.2"/>
<circle clip-path="url(#clip192)" cx="1097.5" cy="984.444" r="7" fill="#009af9" fill-rule="evenodd" fill-opacity="1" stroke="#000000" stroke-opacity="1" stroke-width="3.2"/>
<circle clip-path="url(#clip192)" cx="1691.87" cy="821.699" r="7" fill="#009af9" fill-rule="evenodd" fill-opacity="1" stroke="#000000" stroke-opacity="1" stroke-width="3.2"/>
<circle clip-path="url(#clip192)" cx="1720.73" cy="850.972" r="7" fill="#009af9" fill-rule="evenodd" fill-opacity="1" stroke="#000000" stroke-opacity="1" stroke-width="3.2"/>
<circle clip-path="url(#clip192)" cx="239.947" cy="313.36" r="7" fill="#009af9" fill-rule="evenodd" fill-opacity="1" stroke="#000000" stroke-opacity="1" stroke-width="3.2"/>
<circle clip-path="url(#clip192)" cx="1942.34" cy="789.557" r="7" fill="#009af9" fill-rule="evenodd" fill-opacity="1" stroke="#000000" stroke-opacity="1" stroke-width="3.2"/>
<circle clip-path="url(#clip192)" cx="1701.75" cy="871.03" r="7" fill="#009af9" fill-rule="evenodd" fill-opacity="1" stroke="#000000" stroke-opacity="1" stroke-width="3.2"/>
<circle clip-path="url(#clip192)" cx="242.173" cy="284.232" r="7" fill="#009af9" fill-rule="evenodd" fill-opacity="1" stroke="#000000" stroke-opacity="1" stroke-width="3.2"/>
<circle clip-path="url(#clip192)" cx="1751.02" cy="823.242" r="7" fill="#009af9" fill-rule="evenodd" fill-opacity="1" stroke="#000000" stroke-opacity="1" stroke-width="3.2"/>
<circle clip-path="url(#clip192)" cx="2290.39" cy="518.103" r="7" fill="#009af9" fill-rule="evenodd" fill-opacity="1" stroke="#000000" stroke-opacity="1" stroke-width="3.2"/>
<circle clip-path="url(#clip192)" cx="1168.79" cy="1057.49" r="7" fill="#009af9" fill-rule="evenodd" fill-opacity="1" stroke="#000000" stroke-opacity="1" stroke-width="3.2"/>
<circle clip-path="url(#clip192)" cx="1825.86" cy="1016.84" r="7" fill="#009af9" fill-rule="evenodd" fill-opacity="1" stroke="#000000" stroke-opacity="1" stroke-width="3.2"/>
<circle clip-path="url(#clip192)" cx="244.895" cy="259.175" r="7" fill="#009af9" fill-rule="evenodd" fill-opacity="1" stroke="#000000" stroke-opacity="1" stroke-width="3.2"/>
<circle clip-path="url(#clip192)" cx="1634.2" cy="1209.05" r="7" fill="#009af9" fill-rule="evenodd" fill-opacity="1" stroke="#000000" stroke-opacity="1" stroke-width="3.2"/>
<circle clip-path="url(#clip192)" cx="1530.8" cy="763.647" r="7" fill="#009af9" fill-rule="evenodd" fill-opacity="1" stroke="#000000" stroke-opacity="1" stroke-width="3.2"/>
<circle clip-path="url(#clip192)" cx="531.222" cy="286.311" r="7" fill="#009af9" fill-rule="evenodd" fill-opacity="1" stroke="#000000" stroke-opacity="1" stroke-width="3.2"/>
<circle clip-path="url(#clip192)" cx="2156.87" cy="780.353" r="7" fill="#009af9" fill-rule="evenodd" fill-opacity="1" stroke="#000000" stroke-opacity="1" stroke-width="3.2"/>
<circle clip-path="url(#clip192)" cx="1262.7" cy="1434.94" r="7" fill="#009af9" fill-rule="evenodd" fill-opacity="1" stroke="#000000" stroke-opacity="1" stroke-width="3.2"/>
<circle clip-path="url(#clip192)" cx="473.894" cy="252.287" r="7" fill="#009af9" fill-rule="evenodd" fill-opacity="1" stroke="#000000" stroke-opacity="1" stroke-width="3.2"/>
<circle clip-path="url(#clip192)" cx="471.313" cy="248.364" r="7" fill="#009af9" fill-rule="evenodd" fill-opacity="1" stroke="#000000" stroke-opacity="1" stroke-width="3.2"/>
<circle clip-path="url(#clip192)" cx="1952.02" cy="1037.76" r="7" fill="#009af9" fill-rule="evenodd" fill-opacity="1" stroke="#000000" stroke-opacity="1" stroke-width="3.2"/>
<circle clip-path="url(#clip192)" cx="1216.75" cy="1155.84" r="7" fill="#009af9" fill-rule="evenodd" fill-opacity="1" stroke="#000000" stroke-opacity="1" stroke-width="3.2"/>
<circle clip-path="url(#clip192)" cx="1540.02" cy="775.01" r="7" fill="#009af9" fill-rule="evenodd" fill-opacity="1" stroke="#000000" stroke-opacity="1" stroke-width="3.2"/>
<circle clip-path="url(#clip192)" cx="315.359" cy="319.857" r="7" fill="#009af9" fill-rule="evenodd" fill-opacity="1" stroke="#000000" stroke-opacity="1" stroke-width="3.2"/>
<circle clip-path="url(#clip192)" cx="2165.21" cy="894.539" r="7" fill="#009af9" fill-rule="evenodd" fill-opacity="1" stroke="#000000" stroke-opacity="1" stroke-width="3.2"/>
<circle clip-path="url(#clip192)" cx="1551.41" cy="1262.55" r="7" fill="#009af9" fill-rule="evenodd" fill-opacity="1" stroke="#000000" stroke-opacity="1" stroke-width="3.2"/>
<circle clip-path="url(#clip192)" cx="1134.9" cy="1009.83" r="7" fill="#009af9" fill-rule="evenodd" fill-opacity="1" stroke="#000000" stroke-opacity="1" stroke-width="3.2"/>
<circle clip-path="url(#clip192)" cx="1694.73" cy="860.307" r="7" fill="#009af9" fill-rule="evenodd" fill-opacity="1" stroke="#000000" stroke-opacity="1" stroke-width="3.2"/>
<circle clip-path="url(#clip192)" cx="1220.09" cy="1225.54" r="7" fill="#009af9" fill-rule="evenodd" fill-opacity="1" stroke="#000000" stroke-opacity="1" stroke-width="3.2"/>
<circle clip-path="url(#clip192)" cx="1760.97" cy="816.332" r="7" fill="#009af9" fill-rule="evenodd" fill-opacity="1" stroke="#000000" stroke-opacity="1" stroke-width="3.2"/>
<circle clip-path="url(#clip192)" cx="385.241" cy="181.906" r="7" fill="#009af9" fill-rule="evenodd" fill-opacity="1" stroke="#000000" stroke-opacity="1" stroke-width="3.2"/>
<circle clip-path="url(#clip192)" cx="1596.47" cy="1237.63" r="7" fill="#009af9" fill-rule="evenodd" fill-opacity="1" stroke="#000000" stroke-opacity="1" stroke-width="3.2"/>
<circle clip-path="url(#clip192)" cx="1577.56" cy="838.889" r="7" fill="#009af9" fill-rule="evenodd" fill-opacity="1" stroke="#000000" stroke-opacity="1" stroke-width="3.2"/>
<circle clip-path="url(#clip192)" cx="1236.68" cy="1217.01" r="7" fill="#009af9" fill-rule="evenodd" fill-opacity="1" stroke="#000000" stroke-opacity="1" stroke-width="3.2"/>
<circle clip-path="url(#clip192)" cx="2289.19" cy="519.498" r="7" fill="#009af9" fill-rule="evenodd" fill-opacity="1" stroke="#000000" stroke-opacity="1" stroke-width="3.2"/>
<circle clip-path="url(#clip192)" cx="1396.47" cy="1333.24" r="7" fill="#009af9" fill-rule="evenodd" fill-opacity="1" stroke="#000000" stroke-opacity="1" stroke-width="3.2"/>
<circle clip-path="url(#clip192)" cx="2154.63" cy="912.172" r="7" fill="#009af9" fill-rule="evenodd" fill-opacity="1" stroke="#000000" stroke-opacity="1" stroke-width="3.2"/>
<circle clip-path="url(#clip192)" cx="2289.92" cy="518.583" r="7" fill="#009af9" fill-rule="evenodd" fill-opacity="1" stroke="#000000" stroke-opacity="1" stroke-width="3.2"/>
<circle clip-path="url(#clip192)" cx="1257.37" cy="1438.08" r="7" fill="#009af9" fill-rule="evenodd" fill-opacity="1" stroke="#000000" stroke-opacity="1" stroke-width="3.2"/>
<circle clip-path="url(#clip192)" cx="2290.04" cy="518.376" r="7" fill="#009af9" fill-rule="evenodd" fill-opacity="1" stroke="#000000" stroke-opacity="1" stroke-width="3.2"/>
<circle clip-path="url(#clip192)" cx="1592.92" cy="1240.77" r="7" fill="#009af9" fill-rule="evenodd" fill-opacity="1" stroke="#000000" stroke-opacity="1" stroke-width="3.2"/>
<circle clip-path="url(#clip192)" cx="2167.92" cy="772.895" r="7" fill="#009af9" fill-rule="evenodd" fill-opacity="1" stroke="#000000" stroke-opacity="1" stroke-width="3.2"/>
<circle clip-path="url(#clip192)" cx="351.836" cy="196.783" r="7" fill="#009af9" fill-rule="evenodd" fill-opacity="1" stroke="#000000" stroke-opacity="1" stroke-width="3.2"/>
<circle clip-path="url(#clip192)" cx="234.074" cy="173.789" r="7" fill="#009af9" fill-rule="evenodd" fill-opacity="1" stroke="#000000" stroke-opacity="1" stroke-width="3.2"/>
<circle clip-path="url(#clip192)" cx="1266.38" cy="987.071" r="7" fill="#009af9" fill-rule="evenodd" fill-opacity="1" stroke="#000000" stroke-opacity="1" stroke-width="3.2"/>
<circle clip-path="url(#clip192)" cx="1576.46" cy="839.298" r="7" fill="#009af9" fill-rule="evenodd" fill-opacity="1" stroke="#000000" stroke-opacity="1" stroke-width="3.2"/>
<circle clip-path="url(#clip192)" cx="1501.6" cy="741.398" r="7" fill="#009af9" fill-rule="evenodd" fill-opacity="1" stroke="#000000" stroke-opacity="1" stroke-width="3.2"/>
<circle clip-path="url(#clip192)" cx="1840.96" cy="799.973" r="7" fill="#009af9" fill-rule="evenodd" fill-opacity="1" stroke="#000000" stroke-opacity="1" stroke-width="3.2"/>
<circle clip-path="url(#clip192)" cx="1247.66" cy="1447.87" r="7" fill="#009af9" fill-rule="evenodd" fill-opacity="1" stroke="#000000" stroke-opacity="1" stroke-width="3.2"/>
<circle clip-path="url(#clip192)" cx="401.765" cy="268.677" r="7" fill="#009af9" fill-rule="evenodd" fill-opacity="1" stroke="#000000" stroke-opacity="1" stroke-width="3.2"/>
<circle clip-path="url(#clip192)" cx="263.567" cy="294.333" r="7" fill="#009af9" fill-rule="evenodd" fill-opacity="1" stroke="#000000" stroke-opacity="1" stroke-width="3.2"/>
<circle clip-path="url(#clip192)" cx="2225.38" cy="969.435" r="7" fill="#009af9" fill-rule="evenodd" fill-opacity="1" stroke="#000000" stroke-opacity="1" stroke-width="3.2"/>
<circle clip-path="url(#clip192)" cx="453.011" cy="254.182" r="7" fill="#009af9" fill-rule="evenodd" fill-opacity="1" stroke="#000000" stroke-opacity="1" stroke-width="3.2"/>
<circle clip-path="url(#clip192)" cx="1567.08" cy="824.067" r="7" fill="#009af9" fill-rule="evenodd" fill-opacity="1" stroke="#000000" stroke-opacity="1" stroke-width="3.2"/>
<circle clip-path="url(#clip192)" cx="245.3" cy="204.639" r="7" fill="#009af9" fill-rule="evenodd" fill-opacity="1" stroke="#000000" stroke-opacity="1" stroke-width="3.2"/>
<circle clip-path="url(#clip192)" cx="243.725" cy="162.047" r="7" fill="#009af9" fill-rule="evenodd" fill-opacity="1" stroke="#000000" stroke-opacity="1" stroke-width="3.2"/>
<circle clip-path="url(#clip192)" cx="1104.71" cy="990.947" r="7" fill="#009af9" fill-rule="evenodd" fill-opacity="1" stroke="#000000" stroke-opacity="1" stroke-width="3.2"/>
<circle clip-path="url(#clip192)" cx="1415.39" cy="1323.16" r="7" fill="#009af9" fill-rule="evenodd" fill-opacity="1" stroke="#000000" stroke-opacity="1" stroke-width="3.2"/>
<circle clip-path="url(#clip192)" cx="1938.95" cy="1026.65" r="7" fill="#009af9" fill-rule="evenodd" fill-opacity="1" stroke="#000000" stroke-opacity="1" stroke-width="3.2"/>
<circle clip-path="url(#clip192)" cx="2119.39" cy="797.769" r="7" fill="#009af9" fill-rule="evenodd" fill-opacity="1" stroke="#000000" stroke-opacity="1" stroke-width="3.2"/>
<circle clip-path="url(#clip192)" cx="396.809" cy="191.536" r="7" fill="#009af9" fill-rule="evenodd" fill-opacity="1" stroke="#000000" stroke-opacity="1" stroke-width="3.2"/>
<circle clip-path="url(#clip192)" cx="2038.61" cy="778.904" r="7" fill="#009af9" fill-rule="evenodd" fill-opacity="1" stroke="#000000" stroke-opacity="1" stroke-width="3.2"/>
<circle clip-path="url(#clip192)" cx="1983.4" cy="993.429" r="7" fill="#009af9" fill-rule="evenodd" fill-opacity="1" stroke="#000000" stroke-opacity="1" stroke-width="3.2"/>
<circle clip-path="url(#clip192)" cx="1938.43" cy="1024.4" r="7" fill="#009af9" fill-rule="evenodd" fill-opacity="1" stroke="#000000" stroke-opacity="1" stroke-width="3.2"/>
<circle clip-path="url(#clip192)" cx="2208.62" cy="951.603" r="7" fill="#009af9" fill-rule="evenodd" fill-opacity="1" stroke="#000000" stroke-opacity="1" stroke-width="3.2"/>
<circle clip-path="url(#clip192)" cx="1739.24" cy="1095.23" r="7" fill="#009af9" fill-rule="evenodd" fill-opacity="1" stroke="#000000" stroke-opacity="1" stroke-width="3.2"/>
<circle clip-path="url(#clip192)" cx="1596.73" cy="1237.71" r="7" fill="#009af9" fill-rule="evenodd" fill-opacity="1" stroke="#000000" stroke-opacity="1" stroke-width="3.2"/>
<circle clip-path="url(#clip192)" cx="1552.02" cy="821.825" r="7" fill="#009af9" fill-rule="evenodd" fill-opacity="1" stroke="#000000" stroke-opacity="1" stroke-width="3.2"/>
<circle clip-path="url(#clip192)" cx="1698.53" cy="861.478" r="7" fill="#009af9" fill-rule="evenodd" fill-opacity="1" stroke="#000000" stroke-opacity="1" stroke-width="3.2"/>
<circle clip-path="url(#clip192)" cx="1301.43" cy="959.826" r="7" fill="#009af9" fill-rule="evenodd" fill-opacity="1" stroke="#000000" stroke-opacity="1" stroke-width="3.2"/>
<circle clip-path="url(#clip192)" cx="277.781" cy="166.439" r="7" fill="#009af9" fill-rule="evenodd" fill-opacity="1" stroke="#000000" stroke-opacity="1" stroke-width="3.2"/>
<circle clip-path="url(#clip192)" cx="1170.73" cy="1058.65" r="7" fill="#009af9" fill-rule="evenodd" fill-opacity="1" stroke="#000000" stroke-opacity="1" stroke-width="3.2"/>
<circle clip-path="url(#clip192)" cx="1282.77" cy="1218.32" r="7" fill="#009af9" fill-rule="evenodd" fill-opacity="1" stroke="#000000" stroke-opacity="1" stroke-width="3.2"/>
<circle clip-path="url(#clip192)" cx="1507.25" cy="795.648" r="7" fill="#009af9" fill-rule="evenodd" fill-opacity="1" stroke="#000000" stroke-opacity="1" stroke-width="3.2"/>
<circle clip-path="url(#clip192)" cx="1390.29" cy="1342.97" r="7" fill="#009af9" fill-rule="evenodd" fill-opacity="1" stroke="#000000" stroke-opacity="1" stroke-width="3.2"/>
<circle clip-path="url(#clip192)" cx="1500.43" cy="733.281" r="7" fill="#009af9" fill-rule="evenodd" fill-opacity="1" stroke="#000000" stroke-opacity="1" stroke-width="3.2"/>
<circle clip-path="url(#clip192)" cx="483.719" cy="241.028" r="7" fill="#009af9" fill-rule="evenodd" fill-opacity="1" stroke="#000000" stroke-opacity="1" stroke-width="3.2"/>
<circle clip-path="url(#clip192)" cx="1810.76" cy="1030.8" r="7" fill="#009af9" fill-rule="evenodd" fill-opacity="1" stroke="#000000" stroke-opacity="1" stroke-width="3.2"/>
<circle clip-path="url(#clip192)" cx="1510.57" cy="1282.86" r="7" fill="#009af9" fill-rule="evenodd" fill-opacity="1" stroke="#000000" stroke-opacity="1" stroke-width="3.2"/>
</svg>
